<?xml version="1.0" encoding="UTF-8"?>
<!DOCTYPE svg PUBLIC "-//W3C//DTD SVG 1.1//EN" "http://www.w3.org/Graphics/SVG/1.1/DTD/svg11.dtd">
<svg xmlns="http://www.w3.org/2000/svg" version="1.1" width="499px" height="468px" style="shape-rendering:geometricPrecision; text-rendering:geometricPrecision; image-rendering:optimizeQuality; fill-rule:evenodd; clip-rule:evenodd" xmlns:xlink="http://www.w3.org/1999/xlink">
<g><path style="opacity:0.678" fill="#30a1b4" d="M 399.5,63.5 C 397.519,64.1054 397.185,65.1054 398.5,66.5C 331.37,11.0426 256.037,-3.45737 172.5,23C 103.941,49.6735 58.1079,97.8402 35,167.5C 31.6992,179.528 28.8659,191.528 26.5,203.5C 26.5489,200.626 26.2156,197.792 25.5,195C 25.6148,193.105 26.2815,191.438 27.5,190C 27.4549,187.364 27.2882,184.53 27,181.5C 25.3969,189.952 22.8969,197.952 19.5,205.5C 30.2608,133.089 66.2608,77.2552 127.5,38C 184.383,5.18044 244.717,-3.1529 308.5,13C 343.112,22.6276 373.445,39.461 399.5,63.5 Z"/></g>
<g><path style="opacity:1" fill="#df7b5b" d="M 303.5,69.5 C 303.67,68.1779 303.337,67.0113 302.5,66C 287.645,63.0359 272.645,61.0359 257.5,60C 257,59.5 256.5,59 256,58.5C 240.34,57.8449 224.506,59.5116 208.5,63.5C 205.562,62.4252 202.562,62.2585 199.5,63C 199.833,63.3333 200.167,63.6667 200.5,64C 194.294,67.6286 187.627,70.2953 180.5,72C 174.085,75.4175 167.419,78.4175 160.5,81C 159.953,81.9246 159.287,82.7579 158.5,83.5C 157.636,81.8035 156.303,80.6368 154.5,80C 164.061,74.2626 173.728,68.7626 183.5,63.5C 186.822,63.0846 189.489,61.7513 191.5,59.5C 191.833,59.5 192.167,59.5 192.5,59.5C 201.658,57.9516 210.825,56.2849 220,54.5C 244.708,52.4214 269.208,53.5881 293.5,58C 304.411,61.2543 315.078,65.2543 325.5,70C 323.754,70.4709 322.087,71.1376 320.5,72C 321.167,72.6667 321.833,73.3333 322.5,74C 318.507,73.1136 314.507,71.7803 310.5,70C 308.19,69.5034 305.857,69.3367 303.5,69.5 Z"/></g>
<g><path style="opacity:1" fill="#dd8567" d="M 423.5,183.5 C 422.844,184.622 422.511,185.955 422.5,187.5C 424.118,192.36 425.118,197.36 425.5,202.5C 425.256,206.163 424.923,209.496 424.5,212.5C 420.094,199.013 416.261,185.347 413,171.5C 412.19,169.694 411.024,168.194 409.5,167C 408.07,162.406 406.403,157.906 404.5,153.5C 402.519,149.87 399.852,146.87 396.5,144.5C 374.061,108.793 343.061,83.7934 303.5,69.5C 305.857,69.3367 308.19,69.5034 310.5,70C 314.507,71.7803 318.507,73.1136 322.5,74C 321.833,73.3333 321.167,72.6667 320.5,72C 322.087,71.1376 323.754,70.4709 325.5,70C 315.078,65.2543 304.411,61.2543 293.5,58C 269.208,53.5881 244.708,52.4214 220,54.5C 210.825,56.2849 201.658,57.9516 192.5,59.5C 266.59,38.9811 330.423,56.3145 384,111.5C 402.104,132.701 415.271,156.701 423.5,183.5 Z"/></g>
<g><path style="opacity:0.843" fill="#70bacb" d="M 399.5,63.5 C 432.014,91.6681 454.347,126.501 466.5,168C 465.711,171.097 464.544,171.264 463,168.5C 449.837,129.162 428.337,95.1622 398.5,66.5C 397.185,65.1054 397.519,64.1054 399.5,63.5 Z"/></g>
<g><path style="opacity:1" fill="#dc8568" d="M 303.5,69.5 C 244.095,52.4176 189.761,62.251 140.5,99C 112.519,122.47 93.1855,151.637 82.5,186.5C 80.9961,195.355 79.3295,204.189 77.5,213C 79.6525,215.822 81.8192,218.656 84,221.5C 86.335,237.832 79.5017,244.666 63.5,242C 56.6263,237.744 53.9597,231.578 55.5,223.5C 55.5973,230.196 58.264,235.696 63.5,240C 69.6727,243.068 74.3394,241.568 77.5,235.5C 76.8333,234.833 76.1667,234.167 75.5,233.5C 77.0982,233.39 78.7648,233.057 80.5,232.5C 81.6262,229.352 80.9596,226.519 78.5,224C 79.6206,220.089 78.1206,217.589 74,216.5C 73.8823,213.629 73.2156,210.962 72,208.5C 71.3333,209.167 70.6667,209.833 70,210.5C 69.6667,208.833 69.3333,207.167 69,205.5C 68.2057,208.471 67.539,211.471 67,214.5C 64.2974,217.538 61.2974,220.205 58,222.5C 57.6174,221.944 57.1174,221.611 56.5,221.5C 58.1462,218.081 60.6462,215.414 64,213.5C 73.9956,148.947 107.496,101.113 164.5,70C 173.091,65.4148 182.091,61.9148 191.5,59.5C 189.489,61.7513 186.822,63.0846 183.5,63.5C 173.728,68.7626 164.061,74.2626 154.5,80C 156.303,80.6368 157.636,81.8035 158.5,83.5C 159.287,82.7579 159.953,81.9246 160.5,81C 167.419,78.4175 174.085,75.4175 180.5,72C 187.627,70.2953 194.294,67.6286 200.5,64C 200.167,63.6667 199.833,63.3333 199.5,63C 202.562,62.2585 205.562,62.4252 208.5,63.5C 224.506,59.5116 240.34,57.8449 256,58.5C 256.5,59 257,59.5 257.5,60C 272.645,61.0359 287.645,63.0359 302.5,66C 303.337,67.0113 303.67,68.1779 303.5,69.5 Z"/></g>
<g><path style="opacity:0.612" fill="#343b3e" d="M 276.5,112.5 C 281.448,113.736 284.948,116.736 287,121.5C 288.302,122.085 289.469,122.751 290.5,123.5C 287.603,123.681 284.77,123.348 282,122.5C 279.228,124.019 276.395,125.352 273.5,126.5C 273.918,125.778 274.584,125.278 275.5,125C 266.978,126.74 261.645,123.407 259.5,115C 260.103,111.561 262.103,109.728 265.5,109.5C 269.124,110.656 272.79,111.656 276.5,112.5 Z"/></g>
<g><path style="opacity:1" fill="#0796b0" d="M 290.5,123.5 C 293.192,124.009 295.692,125.009 298,126.5C 302.698,140.758 305.365,155.425 306,170.5C 308.302,198.291 299.469,221.791 279.5,241C 276.479,242.18 273.479,243.346 270.5,244.5C 257.02,246.951 245.02,243.785 234.5,235C 216.727,218.904 201.56,200.737 189,180.5C 187.759,178.452 187.592,176.452 188.5,174.5C 197.018,176.731 205.018,180.231 212.5,185C 216.914,190.409 222.247,194.742 228.5,198C 232.092,200.921 234.925,204.421 237,208.5C 238.085,209.293 239.252,209.96 240.5,210.5C 241.603,207.361 241.603,204.194 240.5,201C 240.493,199.188 241.16,197.688 242.5,196.5C 240.903,195.209 239.57,193.709 238.5,192C 238.966,188.83 238.966,185.497 238.5,182C 239.298,170.913 240.798,159.747 243,148.5C 247.509,141.957 253.009,136.457 259.5,132C 263.5,131 267.5,130 271.5,129C 272.381,128.292 273.047,127.458 273.5,126.5C 276.395,125.352 279.228,124.019 282,122.5C 284.77,123.348 287.603,123.681 290.5,123.5 Z"/></g>
<g><path style="opacity:1" fill="#0b96af" d="M 312.5,129.5 C 320.557,132.633 327.391,137.633 333,144.5C 339.338,158.516 343.505,173.183 345.5,188.5C 345.347,197.687 345.347,206.854 345.5,216C 343.709,222.811 343.042,229.645 343.5,236.5C 342.41,242.855 340.576,249.188 338,255.5C 337.633,261.204 336.966,266.87 336,272.5C 335.233,275.48 333.9,278.146 332,280.5C 329.041,294.055 324.708,307.055 319,319.5C 316.182,329.192 313.182,338.858 310,348.5C 307.861,351.939 305.361,355.106 302.5,358C 300.966,358.923 299.299,359.423 297.5,359.5C 289.373,356.901 281.373,353.901 273.5,350.5C 280.845,345.359 287.678,339.359 294,332.5C 300,323.833 306,315.167 312,306.5C 312.667,304.167 312.667,301.833 312,299.5C 308.062,291.52 305.229,283.186 303.5,274.5C 304.391,273.739 305.058,272.739 305.5,271.5C 302.905,266.215 300.405,260.882 298,255.5C 297.333,252.167 297.333,248.833 298,245.5C 304.973,239.86 311.306,233.527 317,226.5C 317.965,211.328 319.465,196.328 321.5,181.5C 319.089,181.863 317.589,180.863 317,178.5C 315.612,165.505 314.278,152.505 313,139.5C 312.803,136.308 311.97,133.308 310.5,130.5C 310.957,129.702 311.624,129.369 312.5,129.5 Z"/></g>
<g><path style="opacity:0.769" fill="#232629" d="M 186.5,165.5 C 183.932,167.081 182.599,169.414 182.5,172.5C 181.391,170.414 180.724,168.08 180.5,165.5C 181.021,163.476 181.188,161.476 181,159.5C 179.097,162.171 178.264,165.171 178.5,168.5C 177.295,166.862 175.962,166.529 174.5,167.5C 173.756,162.298 174.923,157.631 178,153.5C 184.91,147.265 190.243,139.932 194,131.5C 198.294,127.399 202.294,127.732 206,132.5C 208.273,137.249 207.439,141.415 203.5,145C 199.963,146.281 196.796,148.114 194,150.5C 192.487,153.524 190.487,156.191 188,158.5C 187.023,160.74 186.523,163.073 186.5,165.5 Z"/></g>
<g><path style="opacity:1" fill="#0496b0" d="M 174.5,173.5 C 189.659,202.857 209.326,229.024 233.5,252C 236.833,254.333 240.167,256.667 243.5,259C 253.826,259.784 264.159,260.451 274.5,261C 276.286,261.785 277.786,262.951 279,264.5C 280.026,267.239 281.526,269.572 283.5,271.5C 284.41,274.992 286.076,277.992 288.5,280.5C 290.268,282.196 292.435,283.53 295,284.5C 295.747,291.882 295.414,299.215 294,306.5C 292.816,310.582 291.649,314.582 290.5,318.5C 286.952,321.906 284.118,325.906 282,330.5C 278.833,333 275.667,335.5 272.5,338C 268.259,339.457 263.926,339.791 259.5,339C 255.673,337.254 252.007,335.254 248.5,333C 240.658,324.992 232.658,317.158 224.5,309.5C 213.613,297.968 201.946,287.135 189.5,277C 179.889,270.029 169.223,265.529 157.5,263.5C 155.833,263.5 154.167,263.5 152.5,263.5C 149.864,254.387 144.864,246.887 137.5,241C 134.499,240.262 131.832,239.096 129.5,237.5C 126.424,229.838 125.257,221.838 126,213.5C 128.77,205.079 132.437,197.079 137,189.5C 147.347,179.075 159.847,173.742 174.5,173.5 Z"/></g>
<g><path style="opacity:1" fill="#de7a59" d="M 82.5,186.5 C 80.8639,187.749 79.6972,189.416 79,191.5C 78.0911,194.513 77.2578,197.513 76.5,200.5C 75.5,200.5 74.5,200.5 73.5,200.5C 72.7822,192.518 73.9489,184.851 77,177.5C 78.4095,176.213 79.9095,175.046 81.5,174C 80.5697,172.806 79.9031,171.473 79.5,170C 81.146,162.908 83.4793,156.075 86.5,149.5C 87.5,149.5 88.5,149.5 89.5,149.5C 89.8793,144.874 91.7127,140.874 95,137.5C 95.3076,138.308 95.8076,138.975 96.5,139.5C 97.2978,137.922 97.7978,136.256 98,134.5C 99.0113,135.337 100.178,135.67 101.5,135.5C 101.868,140.944 99.8682,145.277 95.5,148.5C 94.5481,150.045 94.2148,151.712 94.5,153.5C 93.5,153.5 92.5,153.5 91.5,153.5C 90.165,157.305 89.3317,161.305 89,165.5C 83.9869,171.549 81.8203,178.549 82.5,186.5 Z"/></g>
<g><path style="opacity:0.686" fill="#0e2c32" d="M 186.5,165.5 C 186.068,168.877 186.735,171.877 188.5,174.5C 187.592,176.452 187.759,178.452 189,180.5C 201.56,200.737 216.727,218.904 234.5,235C 245.02,243.785 257.02,246.951 270.5,244.5C 270.611,245.117 270.944,245.617 271.5,246C 268.123,246.452 264.789,247.118 261.5,248C 262.416,248.278 263.082,248.778 263.5,249.5C 260.583,248.709 257.75,248.709 255,249.5C 249.581,247.21 244.081,245.043 238.5,243C 229.697,235.198 221.197,227.031 213,218.5C 211.368,220.707 211.368,223.04 213,225.5C 218.514,230.714 223.681,236.214 228.5,242C 233.869,245.69 238.869,249.857 243.5,254.5C 245.115,255.154 246.782,255.654 248.5,256C 256.493,256.5 264.493,256.666 272.5,256.5C 275.901,256.701 278.401,258.368 280,261.5C 280.414,261.043 280.914,260.709 281.5,260.5C 281.158,264.225 281.825,267.892 283.5,271.5C 281.526,269.572 280.026,267.239 279,264.5C 277.786,262.951 276.286,261.785 274.5,261C 264.159,260.451 253.826,259.784 243.5,259C 240.167,256.667 236.833,254.333 233.5,252C 209.326,229.024 189.659,202.857 174.5,173.5C 174.5,171.5 174.5,169.5 174.5,167.5C 175.962,166.529 177.295,166.862 178.5,168.5C 179.664,172.821 181.164,177.154 183,181.5C 185.37,185.597 188.203,189.264 191.5,192.5C 187.968,186.101 184.968,179.434 182.5,172.5C 182.599,169.414 183.932,167.081 186.5,165.5 Z M 191.5,192.5 C 198.356,199.346 204.023,207.013 208.5,215.5C 206.61,215.703 205.11,215.037 204,213.5C 199.307,206.775 195.14,199.775 191.5,192.5 Z"/></g>
<g><path style="opacity:1" fill="#df7958" d="M 55.5,223.5 C 55.8333,222.833 56.1667,222.167 56.5,221.5C 57.1174,221.611 57.6174,221.944 58,222.5C 61.2974,220.205 64.2974,217.538 67,214.5C 67.539,211.471 68.2057,208.471 69,205.5C 69.3333,207.167 69.6667,208.833 70,210.5C 70.6667,209.833 71.3333,209.167 72,208.5C 73.2156,210.962 73.8823,213.629 74,216.5C 78.1206,217.589 79.6206,220.089 78.5,224C 80.9596,226.519 81.6262,229.352 80.5,232.5C 78.7648,233.057 77.0982,233.39 75.5,233.5C 76.1667,234.167 76.8333,234.833 77.5,235.5C 74.3394,241.568 69.6727,243.068 63.5,240C 58.264,235.696 55.5973,230.196 55.5,223.5 Z"/></g>
<g><path style="opacity:0.635" fill="#da8e74" d="M 396.5,144.5 C 399.852,146.87 402.519,149.87 404.5,153.5C 406.403,157.906 408.07,162.406 409.5,167C 411.024,168.194 412.19,169.694 413,171.5C 416.261,185.347 420.094,199.013 424.5,212.5C 424.923,209.496 425.256,206.163 425.5,202.5C 425.118,197.36 424.118,192.36 422.5,187.5C 422.511,185.955 422.844,184.622 423.5,183.5C 432.943,221.387 431.276,258.72 418.5,295.5C 417.957,295.44 417.624,295.107 417.5,294.5C 421.006,283.305 424.006,271.972 426.5,260.5C 426.274,258.811 425.941,257.145 425.5,255.5C 427.903,241.607 427.903,227.774 425.5,214C 425.167,213.833 424.833,213.667 424.5,213.5C 423.903,231.221 422.903,248.888 421.5,266.5C 421.709,267.086 422.043,267.586 422.5,268C 419.408,274.113 417.575,280.613 417,287.5C 416.124,289.635 414.624,290.969 412.5,291.5C 428.53,240.107 423.197,191.107 396.5,144.5 Z"/></g>
<g><path style="opacity:0.947" fill="#121b1f" d="M 276.5,112.5 C 285.933,113.395 295.266,114.895 304.5,117C 308.548,120.258 311.215,124.425 312.5,129.5C 311.624,129.369 310.957,129.702 310.5,130.5C 311.97,133.308 312.803,136.308 313,139.5C 314.278,152.505 315.612,165.505 317,178.5C 317.589,180.863 319.089,181.863 321.5,181.5C 319.465,196.328 317.965,211.328 317,226.5C 311.306,233.527 304.973,239.86 298,245.5C 297.333,248.833 297.333,252.167 298,255.5C 300.405,260.882 302.905,266.215 305.5,271.5C 305.058,272.739 304.391,273.739 303.5,274.5C 300.858,275.09 297.858,275.423 294.5,275.5C 294.5,276.833 294.5,278.167 294.5,279.5C 292.5,279.833 290.5,280.167 288.5,280.5C 286.076,277.992 284.41,274.992 283.5,271.5C 281.825,267.892 281.158,264.225 281.5,260.5C 280.914,260.709 280.414,261.043 280,261.5C 278.401,258.368 275.901,256.701 272.5,256.5C 275.549,255.899 278.549,255.399 281.5,255C 285.446,261.007 289.112,267.174 292.5,273.5C 295.586,274.963 297.92,274.129 299.5,271C 296.803,264.437 293.47,258.27 289.5,252.5C 293.566,242.028 299.4,232.694 307,224.5C 308,222.5 309,220.5 310,218.5C 310.787,211.845 311.453,205.179 312,198.5C 312.5,198 313,197.5 313.5,197C 312.576,192.901 312.576,188.735 313.5,184.5C 311.876,184.36 310.71,185.027 310,186.5C 308.121,203.812 302.121,219.479 292,233.5C 284.506,242.984 275.006,248.317 263.5,249.5C 263.082,248.778 262.416,248.278 261.5,248C 264.789,247.118 268.123,246.452 271.5,246C 270.944,245.617 270.611,245.117 270.5,244.5C 273.479,243.346 276.479,242.18 279.5,241C 299.469,221.791 308.302,198.291 306,170.5C 305.365,155.425 302.698,140.758 298,126.5C 295.692,125.009 293.192,124.009 290.5,123.5C 289.469,122.751 288.302,122.085 287,121.5C 284.948,116.736 281.448,113.736 276.5,112.5 Z M 300.5,122.5 C 302.371,122.859 303.871,123.859 305,125.5C 306.399,128.363 307.399,131.363 308,134.5C 309.724,148.521 311.558,162.521 313.5,176.5C 313.547,178 312.881,179 311.5,179.5C 309.967,161.633 307.133,143.966 303,126.5C 301.905,125.307 301.072,123.973 300.5,122.5 Z"/></g>
<g><path style="opacity:0.988" fill="#1f9bb3" d="M 26.5,203.5 C 19.245,283.957 45.5784,350.79 105.5,404C 162.084,448.256 225.751,463.256 296.5,449C 372.364,429.473 424.864,383.306 454,310.5C 462.195,288.195 466.528,265.195 467,241.5C 459.077,235.712 457.41,228.379 462,219.5C 468.221,212.954 475.387,211.787 483.5,216C 489.87,221.919 491.037,228.753 487,236.5C 485.2,239.051 483.2,241.385 481,243.5C 474.247,327.555 435.08,391.388 363.5,435C 303.377,467.302 240.71,473.302 175.5,453C 101.013,426.512 51.5125,375.679 27,300.5C 18.2618,269.309 15.7618,237.643 19.5,205.5C 22.8969,197.952 25.3969,189.952 27,181.5C 27.2882,184.53 27.4549,187.364 27.5,190C 26.2815,191.438 25.6148,193.105 25.5,195C 26.2156,197.792 26.5489,200.626 26.5,203.5 Z M 271.5,346.5 C 266.812,349.612 261.812,350.112 256.5,348C 251.565,345.394 246.898,342.394 242.5,339C 238.664,333.997 234.33,329.497 229.5,325.5C 222.483,316.49 215.15,307.823 207.5,299.5C 210.946,302.665 214.613,305.665 218.5,308.5C 226.97,317.471 235.637,326.304 244.5,335C 260.194,348.637 274.361,347.137 287,330.5C 293.667,320.151 297.834,308.817 299.5,296.5C 300.261,291.639 299.261,287.305 296.5,283.5C 297.098,282.205 297.598,280.872 298,279.5C 298.667,278.167 299.333,278.167 300,279.5C 302.86,286.411 305.526,293.411 308,300.5C 308.743,303.783 308.076,306.783 306,309.5C 300.23,318.703 293.73,327.37 286.5,335.5C 281.762,339.578 276.762,343.244 271.5,346.5 Z M 165.5,269.5 C 167.928,270.212 170.261,271.212 172.5,272.5C 173.521,273.002 173.688,273.668 173,274.5C 166.983,271.078 160.483,269.411 153.5,269.5C 151.946,268.105 152.279,267.439 154.5,267.5C 158.159,268.276 161.825,268.943 165.5,269.5 Z M 147.5,260.5 C 144.504,261.678 141.504,263.011 138.5,264.5C 137.702,266.078 137.202,267.744 137,269.5C 136.04,267.02 135.207,264.52 134.5,262C 138.081,259.573 138.247,257.073 135,254.5C 133.108,255.13 131.441,256.13 130,257.5C 128.268,267.299 130.768,275.799 137.5,283C 141.292,285.395 144.292,284.729 146.5,281C 146.355,280.228 146.022,279.561 145.5,279C 140.446,278.286 137.946,275.453 138,270.5C 138.374,271.416 138.874,272.25 139.5,273C 142.5,273.333 145.5,273.667 148.5,274C 151.704,279.513 151.037,284.847 146.5,290C 145.271,290.781 143.938,291.281 142.5,291.5C 134.428,288.591 129.262,282.924 127,274.5C 122.928,264.584 122.595,254.584 126,244.5C 126.995,243.934 127.828,243.267 128.5,242.5C 129.496,242.586 130.329,242.252 131,241.5C 138.746,245.755 144.246,252.088 147.5,260.5 Z"/></g>
<g><path style="opacity:0.824" fill="#da8b6e" d="M 371.5,356.5 C 371.926,357.528 371.926,358.861 371.5,360.5C 367.5,361.167 365.167,363.5 364.5,367.5C 367.488,367.671 369.488,366.338 370.5,363.5C 372.936,361.384 375.603,359.717 378.5,358.5C 335.138,401.678 282.804,419.512 221.5,412C 213.609,410.944 205.942,409.11 198.5,406.5C 195.766,404.558 192.766,403.058 189.5,402C 193.17,401.721 196.837,401.888 200.5,402.5C 265.971,417.49 322.971,402.157 371.5,356.5 Z"/></g>
<g><path style="opacity:0.82" fill="#e1a592" d="M 200.5,402.5 C 196.837,401.888 193.17,401.721 189.5,402C 192.766,403.058 195.766,404.558 198.5,406.5C 129.576,384.445 87.0761,338.111 71,267.5C 70.3333,265.167 70.3333,262.833 71,260.5C 72,259.167 73,259.167 74,260.5C 84.7422,319.9 116.909,363.4 170.5,391C 180.276,395.734 190.276,399.567 200.5,402.5 Z"/></g>
<g><path style="opacity:0.49" fill="#081a1f" d="M 299.5,296.5 C 297.834,308.817 293.667,320.151 287,330.5C 274.361,347.137 260.194,348.637 244.5,335C 235.637,326.304 226.97,317.471 218.5,308.5C 220.435,309.15 222.435,309.483 224.5,309.5C 232.658,317.158 240.658,324.992 248.5,333C 252.007,335.254 255.673,337.254 259.5,339C 263.926,339.791 268.259,339.457 272.5,338C 275.667,335.5 278.833,333 282,330.5C 284.118,325.906 286.952,321.906 290.5,318.5C 293.917,311.356 296.917,304.023 299.5,296.5 Z"/></g>
<g><path style="opacity:0.146" fill="#060809" d="M 229.5,325.5 C 234.33,329.497 238.664,333.997 242.5,339C 246.898,342.394 251.565,345.394 256.5,348C 261.812,350.112 266.812,349.612 271.5,346.5C 271.5,348.167 271.5,349.833 271.5,351.5C 266.255,354.95 260.588,355.45 254.5,353C 251.371,351.601 248.371,349.935 245.5,348C 239.603,342.271 233.936,336.438 228.5,330.5C 229.873,330.657 231.207,330.49 232.5,330C 230.624,329.082 229.624,327.582 229.5,325.5 Z"/></g>
<g><path style="opacity:0.894" fill="#dd8466" d="M 418.5,295.5 C 409.934,319.656 396.601,340.656 378.5,358.5C 375.603,359.717 372.936,361.384 370.5,363.5C 369.488,366.338 367.488,367.671 364.5,367.5C 365.167,363.5 367.5,361.167 371.5,360.5C 371.926,358.861 371.926,357.528 371.5,356.5C 389.454,337.603 403.121,315.937 412.5,291.5C 414.624,290.969 416.124,289.635 417,287.5C 417.575,280.613 419.408,274.113 422.5,268C 422.043,267.586 421.709,267.086 421.5,266.5C 422.903,248.888 423.903,231.221 424.5,213.5C 424.833,213.667 425.167,213.833 425.5,214C 427.903,227.774 427.903,241.607 425.5,255.5C 425.941,257.145 426.274,258.811 426.5,260.5C 424.006,271.972 421.006,283.305 417.5,294.5C 417.624,295.107 417.957,295.44 418.5,295.5 Z"/></g>
<g><path style="opacity:0.51" fill="#0d1012" d="M 122.5,240.5 C 124.102,242.074 126.102,242.741 128.5,242.5C 127.828,243.267 126.995,243.934 126,244.5C 122.595,254.584 122.928,264.584 127,274.5C 129.262,282.924 134.428,288.591 142.5,291.5C 143.938,291.281 145.271,290.781 146.5,290C 151.037,284.847 151.704,279.513 148.5,274C 145.5,273.667 142.5,273.333 139.5,273C 138.874,272.25 138.374,271.416 138,270.5C 137.946,275.453 140.446,278.286 145.5,279C 146.022,279.561 146.355,280.228 146.5,281C 144.292,284.729 141.292,285.395 137.5,283C 130.768,275.799 128.268,267.299 130,257.5C 131.441,256.13 133.108,255.13 135,254.5C 138.247,257.073 138.081,259.573 134.5,262C 135.207,264.52 136.04,267.02 137,269.5C 137.202,267.744 137.702,266.078 138.5,264.5C 141.504,263.011 144.504,261.678 147.5,260.5C 148.659,262.25 150.326,263.25 152.5,263.5C 154.167,263.5 155.833,263.5 157.5,263.5C 159.385,265.311 161.719,266.478 164.5,267C 165.252,267.671 165.586,268.504 165.5,269.5C 161.825,268.943 158.159,268.276 154.5,267.5C 152.279,267.439 151.946,268.105 153.5,269.5C 153.5,270.5 153.5,271.5 153.5,272.5C 153.394,275.079 154.061,277.412 155.5,279.5C 155.948,293.235 149.615,298.735 136.5,296C 120.961,283.055 115.127,266.555 119,246.5C 119.941,244.273 121.108,242.273 122.5,240.5 Z"/></g>
<g><path style="opacity:1" fill="#1497b0" d="M 153.5,272.5 C 167.235,274.369 179.568,279.535 190.5,288C 201.372,298.204 211.538,309.037 221,320.5C 221.483,321.448 221.649,322.448 221.5,323.5C 212.823,321.662 205.489,317.496 199.5,311C 197.693,309.764 195.693,309.43 193.5,310C 179.846,301.014 167.18,290.847 155.5,279.5C 154.061,277.412 153.394,275.079 153.5,272.5 Z"/></g>
<g><path style="opacity:0.896" fill="#12363d" d="M 303.5,274.5 C 305.229,283.186 308.062,291.52 312,299.5C 312.667,301.833 312.667,304.167 312,306.5C 306,315.167 300,323.833 294,332.5C 287.678,339.359 280.845,345.359 273.5,350.5C 272.833,350.833 272.167,351.167 271.5,351.5C 271.5,349.833 271.5,348.167 271.5,346.5C 276.762,343.244 281.762,339.578 286.5,335.5C 293.73,327.37 300.23,318.703 306,309.5C 308.076,306.783 308.743,303.783 308,300.5C 305.526,293.411 302.86,286.411 300,279.5C 299.333,278.167 298.667,278.167 298,279.5C 297.598,280.872 297.098,282.205 296.5,283.5C 299.261,287.305 300.261,291.639 299.5,296.5C 296.917,304.023 293.917,311.356 290.5,318.5C 291.649,314.582 292.816,310.582 294,306.5C 295.414,299.215 295.747,291.882 295,284.5C 292.435,283.53 290.268,282.196 288.5,280.5C 290.5,280.167 292.5,279.833 294.5,279.5C 294.5,278.167 294.5,276.833 294.5,275.5C 297.858,275.423 300.858,275.09 303.5,274.5 Z"/></g>
<g><path style="opacity:0.442" fill="#092934" d="M 157.5,263.5 C 169.223,265.529 179.889,270.029 189.5,277C 201.946,287.135 213.613,297.968 224.5,309.5C 222.435,309.483 220.435,309.15 218.5,308.5C 214.613,305.665 210.946,302.665 207.5,299.5C 215.15,307.823 222.483,316.49 229.5,325.5C 229.624,327.582 230.624,329.082 232.5,330C 231.207,330.49 229.873,330.657 228.5,330.5C 226.386,327.93 224.053,325.597 221.5,323.5C 221.649,322.448 221.483,321.448 221,320.5C 211.538,309.037 201.372,298.204 190.5,288C 179.568,279.535 167.235,274.369 153.5,272.5C 153.5,271.5 153.5,270.5 153.5,269.5C 160.483,269.411 166.983,271.078 173,274.5C 173.688,273.668 173.521,273.002 172.5,272.5C 170.261,271.212 167.928,270.212 165.5,269.5C 165.586,268.504 165.252,267.671 164.5,267C 161.719,266.478 159.385,265.311 157.5,263.5 Z"/></g>
<g><path style="opacity:0.718" fill="#133640" d="M 129.5,237.5 C 131.832,239.096 134.499,240.262 137.5,241C 144.864,246.887 149.864,254.387 152.5,263.5C 150.326,263.25 148.659,262.25 147.5,260.5C 144.246,252.088 138.746,245.755 131,241.5C 130.329,242.252 129.496,242.586 128.5,242.5C 126.102,242.741 124.102,242.074 122.5,240.5C 124.213,238.15 126.547,237.15 129.5,237.5 Z"/></g>
</svg>
